<svg xmlns="http://www.w3.org/2000/svg" xmlns:svg="http://www.w3.org/2000/svg" id="svg2" width="744.094" height="1052.362" version="1.1"><defs id="defs4"><marker id="Arrow1Mstart" orient="auto" overflow="visible" refX="0" refY="0"><path id="path3773" fill-rule="evenodd" stroke="#000" stroke-width="1pt" d="M 0.0,0.0 L 5.0,-5.0 L -12.5,0.0 L 5.0,5.0 L 0.0,0.0 z" transform="scale(0.4) translate(10,0)"/></marker><marker id="Arrow1Sstart" orient="auto" overflow="visible" refX="0" refY="0"><path id="path3779" fill-rule="evenodd" stroke="#000" stroke-width="1pt" d="M 0.0,0.0 L 5.0,-5.0 L -12.5,0.0 L 5.0,5.0 L 0.0,0.0 z" transform="scale(0.2) translate(6,0)"/></marker><marker id="Arrow1Mend" orient="auto" overflow="visible" refX="0" refY="0"><path id="path3776" fill-rule="evenodd" stroke="#000" stroke-width="1pt" d="M 0.0,0.0 L 5.0,-5.0 L -12.5,0.0 L 5.0,5.0 L 0.0,0.0 z" transform="scale(0.4) rotate(180) translate(10,0)"/></marker><marker id="Arrow1Mend-9" orient="auto" overflow="visible" refX="0" refY="0"><path id="path3776-1" fill-rule="evenodd" stroke="#000" stroke-width="1pt" d="M 0,0 5,-5 -12.5,0 5,5 0,0 z" transform="matrix(-0.4,0,0,-0.4,-4,0)"/></marker><marker id="Arrow1Mstart-9" orient="auto" overflow="visible" refX="0" refY="0"><path id="path3773-6" fill-rule="evenodd" stroke="#000" stroke-width="1pt" d="M 0,0 5,-5 -12.5,0 5,5 0,0 z" transform="matrix(0.4,0,0,0.4,4,0)"/></marker><marker id="marker4845" orient="auto" overflow="visible" refX="0" refY="0"><path id="path4847" fill-rule="evenodd" stroke="#000" stroke-width="1pt" d="M 0,0 5,-5 -12.5,0 5,5 0,0 z" transform="matrix(-0.4,0,0,-0.4,-4,0)"/></marker><marker id="Arrow1Mend-0" orient="auto" overflow="visible" refX="0" refY="0"><path id="path3776-0" fill-rule="evenodd" stroke="#000" stroke-width="1pt" d="M 0,0 5,-5 -12.5,0 5,5 0,0 z" transform="matrix(-0.4,0,0,-0.4,-4,0)"/></marker><marker id="Arrow1Mstart-4" orient="auto" overflow="visible" refX="0" refY="0"><path id="path3773-62" fill-rule="evenodd" stroke="#000" stroke-width="1pt" d="M 0,0 5,-5 -12.5,0 5,5 0,0 z" transform="matrix(0.4,0,0,0.4,4,0)"/></marker><marker id="marker4919" orient="auto" overflow="visible" refX="0" refY="0"><path id="path4921" fill-rule="evenodd" stroke="#000" stroke-width="1pt" d="M 0,0 5,-5 -12.5,0 5,5 0,0 z" transform="matrix(-0.4,0,0,-0.4,-4,0)"/></marker><marker id="Arrow1MstartN" orient="auto" overflow="visible" refX="0" refY="0"><path id="path5150" fill="#00f" fill-rule="evenodd" stroke="#00f" stroke-width="1pt" d="M 0.0,0.0 L 5.0,-5.0 L -12.5,0.0 L 5.0,5.0 L 0.0,0.0 z" transform="scale(0.4) translate(10,0)"/></marker><marker id="Arrow1Mendu" orient="auto" overflow="visible" refX="0" refY="0"><path id="path5153" fill="#00f" fill-rule="evenodd" stroke="#00f" stroke-width="1pt" d="M 0.0,0.0 L 5.0,-5.0 L -12.5,0.0 L 5.0,5.0 L 0.0,0.0 z" transform="scale(0.4) rotate(180) translate(10,0)"/></marker><marker id="Arrow1Mendu8" orient="auto" overflow="visible" refX="0" refY="0"><path id="path5274" fill="#00f" fill-rule="evenodd" stroke="#00f" stroke-width="1pt" d="M 0.0,0.0 L 5.0,-5.0 L -12.5,0.0 L 5.0,5.0 L 0.0,0.0 z" transform="scale(0.4) rotate(180) translate(10,0)"/></marker><marker id="Arrow1MendY" orient="auto" overflow="visible" refX="0" refY="0"><path id="path5401" fill="red" fill-rule="evenodd" stroke="red" stroke-width="1pt" d="M 0.0,0.0 L 5.0,-5.0 L -12.5,0.0 L 5.0,5.0 L 0.0,0.0 z" transform="scale(0.4) rotate(180) translate(10,0)"/></marker><marker id="Arrow1Mstartp" orient="auto" overflow="visible" refX="0" refY="0"><path id="path5404" fill="red" fill-rule="evenodd" stroke="red" stroke-width="1pt" d="M 0.0,0.0 L 5.0,-5.0 L -12.5,0.0 L 5.0,5.0 L 0.0,0.0 z" transform="scale(0.4) translate(10,0)"/></marker><marker id="Arrow1Mends" orient="auto" overflow="visible" refX="0" refY="0"><path id="path5407" fill="red" fill-rule="evenodd" stroke="red" stroke-width="1pt" d="M 0.0,0.0 L 5.0,-5.0 L -12.5,0.0 L 5.0,5.0 L 0.0,0.0 z" transform="scale(0.4) rotate(180) translate(10,0)"/></marker><marker id="Arrow1Mend-3" orient="auto" overflow="visible" refX="0" refY="0"><path id="path3776-6" fill-rule="evenodd" stroke="#000" stroke-width="1pt" d="M 0,0 5,-5 -12.5,0 5,5 0,0 z" transform="matrix(-0.4,0,0,-0.4,-4,0)"/></marker><marker id="Arrow1Mstart-7" orient="auto" overflow="visible" refX="0" refY="0"><path id="path3773-5" fill-rule="evenodd" stroke="#000" stroke-width="1pt" d="M 0,0 5,-5 -12.5,0 5,5 0,0 z" transform="matrix(0.4,0,0,0.4,4,0)"/></marker><marker id="marker3215" orient="auto" overflow="visible" refX="0" refY="0"><path id="path3217" fill-rule="evenodd" stroke="#000" stroke-width="1pt" d="M 0,0 5,-5 -12.5,0 5,5 0,0 z" transform="matrix(-0.4,0,0,-0.4,-4,0)"/></marker><marker id="Arrow1MendR" orient="auto" overflow="visible" refX="0" refY="0"><path id="path4189" fill="#ffd300" fill-rule="evenodd" stroke="#ffd300" stroke-width="1pt" d="M 0.0,0.0 L 5.0,-5.0 L -12.5,0.0 L 5.0,5.0 L 0.0,0.0 z" transform="scale(0.4) rotate(180) translate(10,0)"/></marker><marker id="Arrow1MstartE" orient="auto" overflow="visible" refX="0" refY="0"><path id="path4192" fill="#ffd300" fill-rule="evenodd" stroke="#ffd300" stroke-width="1pt" d="M 0.0,0.0 L 5.0,-5.0 L -12.5,0.0 L 5.0,5.0 L 0.0,0.0 z" transform="scale(0.4) translate(10,0)"/></marker><marker id="Arrow1Mendx" orient="auto" overflow="visible" refX="0" refY="0"><path id="path4195" fill="#ffd300" fill-rule="evenodd" stroke="#ffd300" stroke-width="1pt" d="M 0.0,0.0 L 5.0,-5.0 L -12.5,0.0 L 5.0,5.0 L 0.0,0.0 z" transform="scale(0.4) rotate(180) translate(10,0)"/></marker><marker id="Arrow1MendRV" orient="auto" overflow="visible" refX="0" refY="0"><path id="path4404" fill="#00f000" fill-rule="evenodd" stroke="#00f000" stroke-width="1pt" d="M 0.0,0.0 L 5.0,-5.0 L -12.5,0.0 L 5.0,5.0 L 0.0,0.0 z" transform="scale(0.4) rotate(180) translate(10,0)"/></marker><marker id="Arrow1MstartEs" orient="auto" overflow="visible" refX="0" refY="0"><path id="path4407" fill="#00f000" fill-rule="evenodd" stroke="#00f000" stroke-width="1pt" d="M 0.0,0.0 L 5.0,-5.0 L -12.5,0.0 L 5.0,5.0 L 0.0,0.0 z" transform="scale(0.4) translate(10,0)"/></marker><marker id="Arrow1MendxE" orient="auto" overflow="visible" refX="0" refY="0"><path id="path4410" fill="#00f000" fill-rule="evenodd" stroke="#00f000" stroke-width="1pt" d="M 0.0,0.0 L 5.0,-5.0 L -12.5,0.0 L 5.0,5.0 L 0.0,0.0 z" transform="scale(0.4) rotate(180) translate(10,0)"/></marker></defs><metadata id="metadata7"/><g id="layer1"><path id="path2985" fill="#00f" fill-opacity=".055" fill-rule="evenodd" stroke="#00f" stroke-dasharray="none" stroke-linecap="butt" stroke-linejoin="miter" stroke-miterlimit="4" stroke-opacity="1" stroke-width="2" d="m 299.00516,797.29865 a 69.19545,69.19545 0 1 1 -138.3909,0 69.19545,69.19545 0 1 1 138.3909,0 z" transform="translate(-51.358696,49.88765)"/><g id="g4813" transform="translate(-16.885051,49.88765)"><path id="path2991" fill="none" stroke="#000" stroke-dasharray="none" stroke-linecap="butt" stroke-linejoin="miter" stroke-miterlimit="4" stroke-opacity="1" stroke-width="2" marker-end="url(#Arrow1Mend)" d="m 76.921552,927.77093 0,-72.58794"/><path id="path2993" fill="none" stroke="#000" stroke-dasharray="none" stroke-linecap="butt" stroke-linejoin="miter" stroke-miterlimit="4" stroke-opacity="1" stroke-width="2" marker-end="url(#Arrow1Mend)" marker-start="url(#Arrow1Mstart)" d="m 130.00826,927.77093 -53.086708,0 -49.836498,43.33609"/><text id="text4767" x="123.88" y="946.551" fill="#000" fill-opacity="1" stroke="none" font-family="Sans" font-size="40" font-style="normal" font-weight="normal" letter-spacing="0" word-spacing="0" xml:space="preserve" style="line-height:125%"><tspan id="tspan4769" x="123.88" y="946.551" font-family="URW Bookman L" font-size="24" font-stretch="normal" font-style="italic" font-variant="normal" font-weight="normal" style="-inkscape-font-specification:URW Bookman L Italic">x</tspan></text><text id="text4767-3" x="82.778" y="875.101" fill="#000" fill-opacity="1" stroke="none" font-family="Sans" font-size="40" font-style="normal" font-weight="normal" letter-spacing="0" word-spacing="0" xml:space="preserve" style="line-height:125%"><tspan id="tspan4769-4" x="82.778" y="875.101" font-family="URW Bookman L" font-size="24" font-stretch="normal" font-style="italic" font-variant="normal" font-weight="normal" style="-inkscape-font-specification:URW Bookman L Italic">y</tspan></text><text id="text4767-3-0" x="42.533" y="977.019" fill="#000" fill-opacity="1" stroke="none" font-family="Sans" font-size="40" font-style="normal" font-weight="normal" letter-spacing="0" word-spacing="0" xml:space="preserve" style="line-height:125%"><tspan id="tspan4769-4-3" x="42.533" y="977.019" font-family="URW Bookman L" font-size="24" font-stretch="normal" font-style="italic" font-variant="normal" font-weight="normal" style="-inkscape-font-specification:URW Bookman L Italic">z</tspan></text></g><text id="text4823" x="55.515" y="1039.236" fill="#000" fill-opacity="1" stroke="none" font-family="Sans" font-size="40" font-style="normal" font-weight="normal" letter-spacing="0" word-spacing="0" xml:space="preserve" style="line-height:125%"><tspan id="tspan4825" x="55.515" y="1039.236">world</tspan></text><text id="text4827" x="94.963" y="792.753" fill="#000" fill-opacity="1" stroke="none" font-family="Sans" font-size="40" font-style="normal" font-weight="normal" letter-spacing="0" word-spacing="0" xml:space="preserve" style="line-height:125%"><tspan id="tspan4829" x="94.963" y="792.753" fill="#00f" fill-opacity="1">A</tspan></text><g id="g5506" stroke-dasharray="none" stroke-miterlimit="4" stroke-width="1.867" transform="matrix(0.53562421,0,0,0.53562421,-58.808402,451.94085)"><path id="path2991-3" fill="none" stroke="#00f" stroke-dasharray="none" stroke-linecap="butt" stroke-linejoin="miter" stroke-miterlimit="4" stroke-opacity="1" stroke-width="1.867" marker-end="url(#Arrow1Mendu8)" d="M 396.76621,772.53364 345.43878,721.20622"/><path id="path2993-3" fill="none" stroke="#00f" stroke-dasharray="none" stroke-linecap="butt" stroke-linejoin="miter" stroke-miterlimit="4" stroke-opacity="1" stroke-width="1.867" marker-end="url(#Arrow1Mendu)" marker-start="url(#Arrow1MstartN)" d="m 434.30418,734.99567 -37.53797,37.53797 -4.59649,65.88297"/><text id="text4767-8" x="437.188" y="743.814" fill="#00f" fill-opacity="1" stroke="none" font-family="Sans" font-size="40" font-style="normal" font-weight="normal" letter-spacing="0" word-spacing="0" xml:space="preserve" style="line-height:125%"><tspan id="tspan4769-0" x="437.188" y="743.814" fill="#00f" fill-opacity="1" font-family="URW Bookman L" font-size="24" font-stretch="normal" font-style="italic" font-variant="normal" font-weight="normal" style="-inkscape-font-specification:URW Bookman L Italic">x</tspan></text><text id="text4767-3-5" x="353.185" y="718.329" fill="#00f" fill-opacity="1" stroke="none" font-family="Sans" font-size="40" font-style="normal" font-weight="normal" letter-spacing="0" word-spacing="0" xml:space="preserve" style="line-height:125%"><tspan id="tspan4769-4-6" x="353.185" y="718.329" fill="#00f" fill-opacity="1" font-family="URW Bookman L" font-size="24" font-stretch="normal" font-style="italic" font-variant="normal" font-weight="normal" style="-inkscape-font-specification:URW Bookman L Italic">y</tspan></text><text id="text4767-3-0-6" x="402.572" y="830.206" fill="#00f" fill-opacity="1" stroke="none" font-family="Sans" font-size="40" font-style="normal" font-weight="normal" letter-spacing="0" word-spacing="0" xml:space="preserve" style="line-height:125%"><tspan id="tspan4769-4-3-4" x="402.572" y="830.206" fill="#00f" fill-opacity="1" font-family="URW Bookman L" font-size="24" font-stretch="normal" font-style="italic" font-variant="normal" font-weight="normal" style="-inkscape-font-specification:URW Bookman L Italic">z</tspan></text></g><g id="g5516" transform="matrix(0.50657929,0,0,0.50657929,22.032672,536.70336)"><path id="path2991-3-7" fill="none" stroke="red" stroke-dasharray="none" stroke-linecap="butt" stroke-linejoin="miter" stroke-miterlimit="4" stroke-opacity="1" stroke-width="2" marker-end="url(#Arrow1MendY)" d="m 575.29587,778.58578 18.78714,-70.11457"/><path id="path2993-3-5" fill="none" stroke="red" stroke-dasharray="none" stroke-linecap="butt" stroke-linejoin="miter" stroke-miterlimit="4" stroke-opacity="1" stroke-width="2" marker-end="url(#Arrow1Mends)" marker-start="url(#Arrow1Mstartp)" d="m 626.57369,792.32563 -51.27782,-13.73985 -40.96863,19.76784"/><text id="text4767-8-6" x="633.59" y="806.154" fill="red" fill-opacity="1" stroke="none" font-family="Sans" font-size="40" font-style="normal" font-weight="normal" letter-spacing="0" word-spacing="0" xml:space="preserve" style="line-height:125%"><tspan id="tspan4769-0-9" x="633.59" y="806.154" fill="red" fill-opacity="1" font-family="URW Bookman L" font-size="24" font-stretch="normal" font-style="italic" font-variant="normal" font-weight="normal" style="-inkscape-font-specification:URW Bookman L Italic">x</tspan></text><text id="text4767-3-0-6-8" x="545.922" y="811.516" fill="red" fill-opacity="1" stroke="none" font-family="Sans" font-size="40" font-style="normal" font-weight="normal" letter-spacing="0" word-spacing="0" xml:space="preserve" style="line-height:125%"><tspan id="tspan4769-4-3-4-7" x="545.922" y="811.516" fill="red" fill-opacity="1" font-family="URW Bookman L" font-size="24" font-stretch="normal" font-style="italic" font-variant="normal" font-weight="normal" style="-inkscape-font-specification:URW Bookman L Italic">z</tspan></text><text id="text4767-3-5-2" x="600.24" y="711.572" fill="red" fill-opacity="1" stroke="none" font-family="Sans" font-size="40" font-style="normal" font-weight="normal" letter-spacing="0" word-spacing="0" xml:space="preserve" style="line-height:125%"><tspan id="tspan4769-4-6-8" x="600.24" y="711.572" fill="red" fill-opacity="1" font-family="URW Bookman L" font-size="24" font-stretch="normal" font-style="italic" font-variant="normal" font-weight="normal" style="-inkscape-font-specification:URW Bookman L Italic">y</tspan></text></g><path id="path2985-2" fill="red" fill-opacity=".055" fill-rule="evenodd" stroke="red" stroke-dasharray="none" stroke-linecap="butt" stroke-linejoin="miter" stroke-miterlimit="4" stroke-opacity="1" stroke-width="2" d="m 299.00516,797.29865 a 69.19545,69.19545 0 1 1 -138.3909,0 69.19545,69.19545 0 1 1 138.3909,0 z" transform="translate(62.64771,103.06452)"/><text id="text4827-9" x="366.161" y="901.918" fill="red" fill-opacity="1" stroke="none" font-family="Sans" font-size="40" font-style="normal" font-weight="normal" letter-spacing="0" word-spacing="0" xml:space="preserve" style="line-height:125%"><tspan id="tspan4829-9" x="366.161" y="901.918" fill="red" fill-opacity="1">B</tspan></text><g id="g4575"><g id="g4571"><path id="path2991-5" fill="none" stroke="#00f000" stroke-dasharray="none" stroke-linecap="butt" stroke-linejoin="miter" stroke-miterlimit="4" stroke-opacity="1" stroke-width="2" marker-end="url(#Arrow1MendRV)" d="M 237.98136,873.45534 286.71114,844.523"/><path id="path2993-6" fill="none" stroke="#00f000" stroke-dasharray="none" stroke-linecap="butt" stroke-linejoin="miter" stroke-miterlimit="4" stroke-opacity="1" stroke-width="2" marker-end="url(#Arrow1MendxE)" marker-start="url(#Arrow1MstartEs)" d="m 233.43925,933.11031 4.54211,-59.65497 -54.09186,-37.89148"/></g><text id="text4767-2" x="213.385" y="946.107" fill="#00f000" fill-opacity="1" stroke="#000" stroke-dasharray="none" stroke-miterlimit="4" stroke-opacity="1" stroke-width=".1" font-family="Sans" font-size="40" font-style="normal" font-weight="normal" letter-spacing="0" word-spacing="0" xml:space="preserve" style="line-height:125%"><tspan id="tspan4769-9" x="213.385" y="946.107" fill="#00f000" fill-opacity="1" stroke="#000" stroke-dasharray="none" stroke-miterlimit="4" stroke-opacity="1" stroke-width=".1" font-family="URW Bookman L" font-size="24" font-stretch="normal" font-style="italic" font-variant="normal" font-weight="normal" style="-inkscape-font-specification:URW Bookman L Italic">x</tspan></text><text id="text4767-3-1" x="292.764" y="846.979" fill="#00f000" fill-opacity="1" stroke="#000" stroke-dasharray="none" stroke-miterlimit="4" stroke-opacity="1" stroke-width=".1" font-family="Sans" font-size="40" font-style="normal" font-weight="normal" letter-spacing="0" word-spacing="0" xml:space="preserve" style="line-height:125%"><tspan id="tspan4769-4-2" x="292.764" y="846.979" fill="#00f000" fill-opacity="1" stroke="#000" stroke-dasharray="none" stroke-miterlimit="4" stroke-opacity="1" stroke-width=".1" font-family="URW Bookman L" font-size="24" font-stretch="normal" font-style="italic" font-variant="normal" font-weight="normal" style="-inkscape-font-specification:URW Bookman L Italic">y</tspan></text><text id="text4767-3-0-7" x="172.199" y="827.873" fill="#00f000" fill-opacity="1" stroke="#000" stroke-dasharray="none" stroke-miterlimit="4" stroke-opacity="1" stroke-width=".15" font-family="Sans" font-size="40" font-style="normal" font-weight="normal" letter-spacing="0" word-spacing="0" xml:space="preserve" style="line-height:125%"><tspan id="tspan4769-4-3-0" x="172.199" y="827.873" fill="#00f000" fill-opacity="1" stroke="#000" stroke-dasharray="none" stroke-miterlimit="4" stroke-opacity="1" stroke-width=".15" font-family="URW Bookman L" font-size="24" font-stretch="normal" font-style="italic" font-variant="normal" font-weight="normal" style="-inkscape-font-specification:URW Bookman L Italic">z</tspan></text></g><path id="path5565" fill="#000" fill-opacity="1" stroke="none" d="m 257.78539,826.32507 a 2.9848835,2.9848835 0 1 1 -5.96977,0 2.9848835,2.9848835 0 1 1 5.96977,0 z" transform="translate(-18.241816,47.174119)"/><path id="path5567" fill="none" stroke="#000" stroke-dasharray="none" stroke-linecap="butt" stroke-linejoin="miter" stroke-miterlimit="4" stroke-opacity="1" stroke-width="2" marker-end="url(#marker4919)" d="M 236.01599,872.68516 200.46874,846.63527"/><text id="text5779" x="246.599" y="884.625" fill="#000" fill-opacity="1" stroke="none" font-family="Sans" font-size="40" font-style="normal" font-weight="normal" letter-spacing="0" word-spacing="0" xml:space="preserve" style="line-height:0%"><tspan id="tspan5781" x="246.599" y="884.625" font-size="20" letter-spacing="0" word-spacing="0">C<tspan id="tspan3096" baseline-shift="sub" font-size="65%">o</tspan></tspan></text><text id="text5779-6" x="197.066" y="838.64" fill="#000" fill-opacity="1" stroke="none" font-family="Sans" font-size="40" font-style="normal" font-weight="normal" letter-spacing="0" word-spacing="0" xml:space="preserve" style="line-height:0%"><tspan id="tspan5781-0" x="197.066" y="838.64" font-size="20" letter-spacing="0" word-spacing="0"><tspan id="tspan5785-2" dx="0" dy="0" font-size="10" style="line-height:0%"><tspan id="tspan5811" font-size="20">N</tspan></tspan></tspan></text><text id="text4827-9-9" x="247.859" y="828.694" fill="#00f000" fill-opacity="1" stroke="none" font-family="Sans" font-size="40" font-style="normal" font-weight="normal" letter-spacing="0" word-spacing="0" xml:space="preserve" style="line-height:125%"><tspan id="tspan4829-9-3" x="247.859" y="828.694" fill="#00f000" fill-opacity="1">C</tspan></text></g></svg>